<?xml version="1.0" encoding="UTF-8"?>
<svg id="_レイヤー_1" data-name="レイヤー 1" xmlns="http://www.w3.org/2000/svg" xmlns:xlink="http://www.w3.org/1999/xlink" viewBox="0 0 462.43 140.02">
  <defs>
    <style>
      .cls-1 {
        fill: none;
        stroke: url(#_名称未設定グラデーション_27);
        stroke-miterlimit: 10;
        stroke-width: 3px;
      }
    </style>
    <linearGradient id="_名称未設定グラデーション_27" data-name="名称未設定グラデーション 27" x1="55.3" y1="70.01" x2="126.77" y2="70.01" gradientUnits="userSpaceOnUse">
      <stop offset="0" stop-color="#6bc4ce"/>
      <stop offset="1" stop-color="#5179bc"/>
    </linearGradient>
  </defs>
  <path class="cls-1" d="M91.03,105.82l-34.23-17.91v-35.81l34.23-17.91,34.23,17.91v35.81l-34.23,17.91ZM91.03,34.01v72.01M125.28,87.93L56.76,52.08M125.28,52.08l-68.53,35.84M68,45.84l22.46,12.49,11.88-5.83M102.45,39.91l.36,24.17,10.67,6.52,11.91-6.73M113.22,94.23l-21.99-12.13-11.26,5.83M56.81,76.09l23.21-11.87v-11.72M113.37,70.6l-10.72,5.49-.31,11.83M80.02,100.11v-24.33l-11.31-5.78"/>
  <g>
    <g>
      <path d="M155.48,52.96l-.74,2.91h-2.46l3.43-11.05h3.1l3.45,11.05h-2.46l-.75-2.91h-3.58ZM157.97,48.77c-.21-.84-.44-1.63-.65-2.64h-.12c-.19.99-.4,1.83-.61,2.65l-.67,2.64h2.73l-.67-2.65Z"/>
      <path d="M163.7,55.87v-11.34h2.25v11.34h-2.25Z"/>
      <path d="M168.36,55.87v-11.34h2.25v11.34h-2.25Z"/>
      <path d="M176.93,51.1v1.77h-4.19v-1.77h4.19Z"/>
      <path d="M178.64,53.74c.53.51,1.17.87,1.98.87,1.11,0,1.95-.79,1.95-2.93v-6.87h2.31v6.87c0,2.93-1.38,4.41-3.81,4.41-1.21,0-2.05-.3-2.89-.79l.46-1.56Z"/>
      <path d="M192.18,55.87c-.11-.13-.17-.32-.18-.51h-.04c-.45.34-1.26.69-2.24.69-2,0-2.94-.88-2.94-2.35,0-1.61,1.18-2.67,5.11-3.18v-.25c0-.99-.29-1.59-1.18-1.59-.74,0-1.1.62-1.26,1.21l-2.27-.18c.33-1.17,1.2-2.33,3.58-2.33,2.1,0,3.38.68,3.38,3.25v3.96c0,.66.04,1,.29,1.17v.11h-2.25ZM191.9,51.7c-2.04.29-2.8.96-2.8,1.86,0,.68.34,1.11,1.12,1.11.48,0,1.16-.18,1.68-.64v-2.33Z"/>
      <path d="M195.87,47.57h2.25l-.02.67h.04c.29-.19.6-.45,1.02-.6.4-.15.85-.27,1.44-.27.99,0,1.86.32,2.54,1.04.63.66,1.05,1.72,1.05,3.29s-.38,2.59-.99,3.3c-.6.67-1.5,1.05-2.67,1.05-.39,0-.81-.04-1.29-.21-.36-.12-.74-.33-1.1-.6h-.03v4.5h-2.25v-12.17ZM198.12,53.59c.25.32.57.53.91.69.32.15.66.24,1.05.24.52,0,1-.21,1.35-.64.27-.36.45-1,.45-2.14,0-.99-.17-1.68-.48-2.15-.3-.42-.76-.66-1.33-.66-.3,0-.64.06-1,.23-.33.15-.64.39-.94.71v3.73Z"/>
      <path d="M210.38,55.87c-.11-.13-.17-.32-.18-.51h-.04c-.45.34-1.26.69-2.24.69-2,0-2.94-.88-2.94-2.35,0-1.61,1.18-2.67,5.11-3.18v-.25c0-.99-.29-1.59-1.18-1.59-.74,0-1.1.62-1.26,1.21l-2.27-.18c.33-1.17,1.2-2.33,3.58-2.33,2.1,0,3.38.68,3.38,3.25v3.96c0,.66.04,1,.29,1.17v.11h-2.25ZM210.09,51.7c-2.04.29-2.8.96-2.8,1.86,0,.68.34,1.11,1.12,1.11.48,0,1.16-.18,1.68-.64v-2.33Z"/>
      <path d="M219.33,55.87v-4.82c0-.67-.04-1.21-.27-1.54-.15-.25-.4-.4-.82-.4-.33,0-.68.1-.98.25-.33.18-.73.48-1.06.81v5.7h-2.25v-8.29h2.25l-.03.93h.08c.43-.31.88-.58,1.35-.79.45-.19.96-.33,1.49-.33.82,0,1.48.24,1.89.72.39.46.62,1.18.62,2.25v5.52h-2.25Z"/>
      <path d="M227.51,55.87v-11.05h4.04c3.81,0,5.52,1.75,5.52,5.47s-1.44,5.58-5.44,5.58h-4.11ZM231.48,54.34c2.08,0,3.23-1.08,3.23-4,0-2.47-.84-3.99-3.25-3.99h-1.63v7.99h1.66Z"/>
      <path d="M238.89,45.89v-1.47h2.25v1.47h-2.25ZM241.14,55.87h-2.25v-8.29h2.25v8.29Z"/>
      <path d="M248.81,47.57h2.23v7.8c0,1.68-.28,2.73-.94,3.5-.62.71-1.67,1.06-3.01,1.06-.84,0-1.73-.13-2.49-.6-.63-.38-1.2-1-1.56-1.92l2.32-.17c.11.45.27.75.57.97.27.21.64.32,1.12.32.51,0,1-.2,1.29-.62.33-.45.46-1.25.46-2.28v-.31h-.04c-.42.33-1.11.72-2.16.72-2.46,0-3.73-1.6-3.73-4.37s1.3-4.3,3.78-4.3c.86,0,1.63.3,2.15.78h.03v-.58ZM245.18,51.74c0,1.68.67,2.7,1.88,2.7.75,0,1.29-.36,1.75-.79v-3.87c-.34-.42-.95-.79-1.72-.79-1.46,0-1.91,1.12-1.91,2.75h0Z"/>
      <path d="M252.81,45.89v-1.47h2.25v1.47h-2.25ZM255.06,55.87h-2.25v-8.29h2.25v8.29Z"/>
      <path d="M257.45,45.73h2.24v1.84h1.38v1.42h-1.38v3.72c0,1.21.24,1.83.81,1.83.33,0,.63-.2.83-.34l.34,1.42c-.48.22-1,.42-1.71.42-1.62,0-2.5-.79-2.5-2.83v-4.21h-.84v-1.42h.84v-1.84Z"/>
      <path d="M267.65,55.87c-.11-.13-.17-.32-.18-.51h-.04c-.45.34-1.26.69-2.24.69-2,0-2.94-.88-2.94-2.35,0-1.61,1.18-2.67,5.11-3.18v-.25c0-.99-.29-1.59-1.18-1.59-.74,0-1.09.62-1.26,1.21l-2.27-.18c.33-1.17,1.2-2.33,3.58-2.33,2.1,0,3.38.68,3.38,3.25v3.96c0,.66.04,1,.29,1.17v.11h-2.25ZM267.36,51.7c-2.04.29-2.8.96-2.8,1.86,0,.68.34,1.11,1.12,1.11.48,0,1.16-.18,1.68-.64v-2.33Z"/>
      <path d="M271.61,55.87v-11.34h2.25v11.34h-2.25Z"/>
      <path d="M290.06,52.6c-.62,2.16-2.58,3.5-4.79,3.5-1.32,0-2.67-.41-3.58-1.25-1-.9-1.63-2.35-1.63-4.56,0-1.95.58-3.45,1.6-4.39.95-.86,2.19-1.3,3.63-1.3,2.31,0,4.11,1.09,4.65,3.37l-2.34.21c-.35-1.27-1.02-2.07-2.31-2.07-1.62,0-2.88,1.18-2.88,4.25s1.33,4.23,2.85,4.23c1.42,0,2.22-1.16,2.44-2.29l2.36.31Z"/>
      <path d="M293.76,48.35c.2-.27.44-.5.71-.69.25-.17.57-.29.93-.29.18,0,.38.04.52.08.13.04.27.11.41.18l-.2,1.83c-.1-.1-.21-.18-.33-.24-.17-.08-.33-.11-.52-.11-.23,0-.48.09-.79.33-.25.2-.51.5-.77.85v5.57h-2.23v-8.29h2.23v.78s.04,0,.04,0Z"/>
      <path d="M299.21,52.15c.12,1.95.84,2.62,1.75,2.62.73,0,1.21-.42,1.56-1.19l2.34.12c-.22.54-.61,1.11-1.26,1.59-.63.46-1.47.75-2.65.75s-2.19-.29-2.93-.99c-.7-.69-1.12-1.78-1.12-3.39,0-1.37.37-2.56,1.15-3.3.67-.63,1.61-.99,2.88-.99,1.08,0,2.01.3,2.73,1.04.84.87,1.2,2.17,1.2,3.74h-5.65ZM302.55,51.05c-.18-1.59-.83-2.38-1.63-2.38s-1.56.58-1.71,2.38h3.34Z"/>
      <path d="M311.01,55.87c-.11-.13-.17-.32-.18-.51h-.04c-.45.34-1.26.69-2.24.69-2,0-2.94-.88-2.94-2.35,0-1.61,1.18-2.67,5.11-3.18v-.25c0-.99-.29-1.59-1.18-1.59-.74,0-1.1.62-1.26,1.21l-2.27-.18c.33-1.17,1.2-2.33,3.58-2.33,2.1,0,3.38.68,3.38,3.25v3.96c0,.66.04,1,.29,1.17v.11h-2.25ZM310.73,51.7c-2.04.29-2.8.96-2.8,1.86,0,.68.34,1.11,1.12,1.11.48,0,1.16-.18,1.68-.64v-2.33Z"/>
      <path d="M314.94,45.73h2.24v1.84h1.38v1.42h-1.38v3.72c0,1.21.24,1.83.81,1.83.33,0,.63-.2.83-.34l.34,1.42c-.48.22-1,.42-1.71.42-1.62,0-2.5-.79-2.5-2.83v-4.21h-.84v-1.42h.84v-1.84Z"/>
      <path d="M320.43,45.89v-1.47h2.25v1.47h-2.25ZM322.68,55.87h-2.25v-8.29h2.25v8.29Z"/>
      <path d="M328.1,54.43c.29-1.32.46-2.23.79-3.61l.76-3.24h2.45l-2.73,8.29h-2.66l-2.73-8.29h2.46l.78,3.24c.27,1.14.51,2.31.78,3.61h.09Z"/>
      <path d="M334.77,52.15c.12,1.95.84,2.62,1.75,2.62.73,0,1.21-.42,1.56-1.19l2.34.12c-.22.54-.61,1.11-1.26,1.59-.63.46-1.47.75-2.65.75s-2.19-.29-2.93-.99c-.7-.69-1.12-1.78-1.12-3.39,0-1.37.37-2.56,1.15-3.3.67-.63,1.61-.99,2.88-.99,1.08,0,2.01.3,2.73,1.04.84.87,1.2,2.17,1.2,3.74h-5.65ZM338.12,51.05c-.18-1.59-.83-2.38-1.63-2.38s-1.56.58-1.71,2.38h3.34Z"/>
      <path d="M355.65,52.6c-.62,2.16-2.58,3.5-4.79,3.5-1.32,0-2.67-.41-3.58-1.25-1-.9-1.63-2.35-1.63-4.56,0-1.95.58-3.45,1.6-4.39.95-.86,2.19-1.3,3.63-1.3,2.31,0,4.11,1.09,4.65,3.37l-2.34.21c-.35-1.27-1.02-2.07-2.31-2.07-1.62,0-2.88,1.18-2.88,4.25s1.33,4.23,2.85,4.23c1.42,0,2.22-1.16,2.44-2.29l2.36.31Z"/>
      <path d="M357.47,55.87v-11.34h2.25v11.34h-2.25Z"/>
      <path d="M363.92,47.57v4.8c0,.69.04,1.23.25,1.56.15.23.43.39.87.39.33,0,.73-.11,1.08-.29.34-.18.69-.42.96-.75v-5.71h2.25v8.29h-2.25l.03-1.02h-.07c-.3.27-.66.58-1.05.78-.51.27-1.14.42-1.8.42-.82,0-1.53-.22-1.93-.71-.39-.48-.58-1.18-.58-2.25v-5.52h2.25Z"/>
      <path d="M370.82,44.53h2.25v3.72h.03c.66-.5,1.4-.87,2.46-.87,1.91,0,3.58,1.47,3.58,4.33,0,2.28-1.05,4.33-3.66,4.33-1.09,0-1.81-.46-2.4-.85h-.03v.67h-2.23v-11.34ZM373.07,53.54c.39.43,1.03.97,1.96.97,1.11,0,1.8-1.03,1.8-2.77s-.66-2.82-1.82-2.82c-.76,0-1.42.41-1.95.93v3.69Z"/>
    </g>
    <g>
      <path d="M181.9,87.7c0,10.65-4.45,14.6-15.25,14.6s-15.1-3.8-15.1-14.65v-22.95h7.55v23.3c0,6,1.55,9.25,7.55,9.25s7.7-3.15,7.7-9.25v-23.3h7.55v23Z"/>
      <path d="M206.2,101.56v-16.05c0-2.25-.15-4.05-.9-5.15-.5-.85-1.35-1.35-2.75-1.35-1.1,0-2.25.35-3.25.85-1.1.6-2.45,1.6-3.55,2.7v19h-7.5v-27.65h7.5l-.1,3.1h.25c1.45-1.05,2.95-1.95,4.5-2.65,1.5-.65,3.2-1.1,4.95-1.1,2.75,0,4.95.8,6.3,2.4,1.3,1.55,2.05,3.95,2.05,7.5v18.4h-7.5Z"/>
      <path d="M219.39,68.3v-4.9h7.5v4.9h-7.5ZM226.9,101.56h-7.5v-27.65h7.5v27.65Z"/>
      <path d="M234.54,101.56v-36.85h13.75c11.3,0,15.5,4.4,15.5,11.4,0,8.6-5.7,12-15.95,12h-5.6v13.45h-7.7ZM247.45,83c5.8,0,8.5-1.9,8.5-6.75,0-4.5-2.7-6.45-8.05-6.45h-5.65v13.2h5.2Z"/>
      <path d="M275.94,76.5c.65-.9,1.45-1.65,2.35-2.3.85-.55,1.9-.95,3.1-.95.6,0,1.25.15,1.75.25.45.15.9.35,1.35.6l-.65,6.1c-.35-.35-.7-.6-1.1-.8-.55-.25-1.1-.35-1.75-.35-.75,0-1.6.3-2.65,1.1-.85.65-1.7,1.65-2.55,2.85v18.55h-7.45v-27.65h7.45l-.05,2.6h.2Z"/>
      <path d="M314.84,87.75c0,8.9-4.8,14.4-14.2,14.4s-14.2-5.65-14.2-14.45c0-10.15,5.8-14.45,14.2-14.45s14.2,4.3,14.2,14.45v.05ZM300.69,97.56c3.65,0,6.45-3.25,6.45-9.8,0-7.05-3.15-9.75-6.5-9.75s-6.5,2.75-6.5,9.75,2.9,9.8,6.5,9.8h.05Z"/>
      <path d="M313.69,107.46c.55.5,1.25,1,1.95,1.3.5.2,1.2.4,2.05.4,1.1,0,2.2-.45,2.75-1.35.7-1.15.9-2.95.9-5.75v-28.15h7.5v26.75c0,5.1-.8,8.35-2.45,10.45-1.65,2.1-4.15,3-7.45,3-1.3,0-2.5-.15-3.75-.45-1.15-.25-2.3-.65-3.5-1.2l2-5ZM321.34,68.3v-4.9h7.5v4.9h-7.5Z"/>
      <path d="M340.49,89.16c.4,6.5,2.8,8.75,5.85,8.75,2.45,0,4.05-1.4,5.2-3.95l7.8.4c-.75,1.8-2.05,3.7-4.2,5.3-2.1,1.55-4.9,2.5-8.85,2.5s-7.3-.95-9.75-3.3c-2.35-2.3-3.75-5.95-3.75-11.3,0-4.55,1.25-8.55,3.85-11,2.25-2.1,5.35-3.3,9.6-3.3,3.6,0,6.7,1,9.1,3.45,2.8,2.9,4,7.25,4,12.45h-18.85ZM351.64,85.5c-.6-5.3-2.75-7.95-5.45-7.95s-5.2,1.95-5.7,7.95h11.15Z"/>
      <path d="M380.59,82.45c-.95-2.65-2.4-4.5-5-4.5-3.7,0-6.2,3-6.2,9.75,0,7.3,2.8,9.8,6.15,9.8,2.75,0,4.2-2.1,5.15-5.1l7.7.6c-1.35,5.6-5.8,9.15-12.8,9.15-9.1,0-13.9-5.1-13.9-14.5s5.35-14.4,13.95-14.4c7.5,0,11.45,3.7,12.55,8.7l-7.6.5Z"/>
      <path d="M392.94,67.75h7.45v6.15h4.6v4.75h-4.6v12.4c0,4.05.8,6.1,2.7,6.1,1.1,0,2.1-.65,2.75-1.15l1.15,4.75c-1.6.75-3.35,1.4-5.7,1.4-5.4,0-8.35-2.65-8.35-9.45v-14.05h-2.8v-4.75h2.8v-6.15Z"/>
    </g>
  </g>
</svg>